<svg width="573" height="148" viewBox="0 0 573 148" fill="none" xmlns="http://www.w3.org/2000/svg">
    <path d="M201.234 108.679C193.28 108.679 186.749 106.804 181.64 103.053C176.531 99.2377 173.783 93.8057 173.395 86.757H193.668C193.862 89.1497 194.573 90.8957 195.802 91.995C197.031 93.0943 198.615 93.644 200.555 93.644C202.301 93.644 203.724 93.2237 204.823 92.383C205.987 91.4777 206.569 90.249 206.569 88.697C206.569 86.6923 205.631 85.1403 203.756 84.041C201.881 82.9417 198.841 81.713 194.638 80.355C190.176 78.8677 186.555 77.445 183.774 76.087C181.058 74.6643 178.665 72.6273 176.596 69.976C174.591 67.26 173.589 63.7357 173.589 59.403C173.589 55.0057 174.688 51.255 176.887 48.151C179.086 44.9823 182.125 42.5897 186.005 40.973C189.885 39.3563 194.282 38.548 199.197 38.548C207.151 38.548 213.488 40.4233 218.209 44.174C222.994 47.86 225.549 53.0657 225.872 59.791H205.211C205.146 57.7217 204.5 56.1697 203.271 55.135C202.107 54.1003 200.587 53.583 198.712 53.583C197.289 53.583 196.125 54.0033 195.22 54.844C194.315 55.6847 193.862 56.881 193.862 58.433C193.862 59.7263 194.347 60.858 195.317 61.828C196.352 62.7333 197.613 63.5417 199.1 64.253C200.587 64.8997 202.786 65.7403 205.696 66.775C210.029 68.2623 213.585 69.7497 216.366 71.237C219.211 72.6597 221.636 74.6967 223.641 77.348C225.71 79.9347 226.745 83.2327 226.745 87.242C226.745 91.316 225.71 94.9697 223.641 98.203C221.636 101.436 218.694 103.991 214.814 105.866C210.999 107.741 206.472 108.679 201.234 108.679ZM287.09 39.615V54.747H268.854V108H249.842V54.747H231.8V39.615H287.09ZM337.386 96.845H313.136L309.45 108H289.468L314.397 39.615H336.319L361.151 108H341.072L337.386 96.845ZM332.633 82.295L325.261 60.179L317.986 82.295H332.633ZM418.855 39.615V54.747H400.619V108H381.607V54.747H363.565V39.615H418.855ZM444.901 39.615V108H425.889V39.615H444.901ZM502.094 39.615V54.747H474.74V66.775H494.916V81.228H474.74V108H455.728V39.615H502.094ZM572.278 39.615L548.222 86.272V108H529.113V86.272L505.057 39.615H526.785L538.813 65.999L550.841 39.615H572.278Z" fill="white" />
    <path d="M17.205 91.1433L16.65 90.5883C14.245 88.1833 14.245 84.2983 16.65 81.8933L54.205 44.2767C56.61 41.8717 60.495 41.8717 62.9 44.2767L83.1883 64.565L122.593 20.2883C124.937 17.6367 129.068 17.575 131.535 20.0417C133.817 22.385 133.94 26.085 131.782 28.49L87.5667 78.255C85.2233 80.9067 81.1533 81.03 78.625 78.5017L58.5833 58.46L25.9 91.1433C23.5567 93.5483 19.61 93.5483 17.205 91.1433ZM25.9 128.143L58.5833 95.46L78.625 115.502C81.1533 118.03 85.2233 117.907 87.5667 115.255L131.782 65.49C133.94 63.085 133.817 59.385 131.535 57.0417C129.068 54.575 124.937 54.6367 122.593 57.2883L83.1883 101.565L62.9 81.2767C60.495 78.8717 56.61 78.8717 54.205 81.2767L16.65 118.893C14.245 121.298 14.245 125.183 16.65 127.588L17.205 128.143C19.61 130.548 23.5567 130.548 25.9 128.143Z" fill="white" />
</svg>